# xmcd
#
# Track frame offsets: 
#        150
#        20534
#        43561
#        64434
#        84161
#        103527
#        121806
#        139897
#        161168
#        182683
#        201372
#        225024
#        245329
#        263187
#        281280
#        305290
#
# Disc length: 4349 seconds
#
# Revision: 0
# Processed by: cddbd v1.4PL0 Copyright (c) Steve Scherf et al.
# Submitted via: ExactAudioCopy v0.90b4
#
DISCID=d010fb10
DTITLE=Dana Glover - Testimony (Limited Edition)
DYEAR=1900
DGENRE=Folk/Rock
TTITLE0=Rain
TTITLE1=Thinking Over
TTITLE2=Almost Had It All
TTITLE3=Cherish
TTITLE4=A Reason
TTITLE5=Maybe
TTITLE6=Make it Real
TTITLE7=River of Love
TTITLE8=Falling into Love
TTITLE9=The Way (Radio Song)
TTITLE10=Testimony
TTITLE11=Thinking Over (Acoustic)
TTITLE12=Almost Had It All (Acoustic)
TTITLE13=Make It Real (Acoustic)
TTITLE14=Falling into Love (Acoustic)
TTITLE15=Rain (Acoustic)
EXTD=
EXTT0=
EXTT1=
EXTT2=
EXTT3=
EXTT4=
EXTT5=
EXTT6=
EXTT7=
EXTT8=
EXTT9=
EXTT10=
EXTT11=
EXTT12=
EXTT13=
EXTT14=
EXTT15=
PLAYORDER=
